# xmcd
#
# Track frame offsets: 
#        150
#        50542
#        79347
#        110405
#        134558
#        160254
#        180370
#        212460
#        239731
#        287615
#
# Disc length: 4631 seconds
#
# Revision: 3
# Processed by: cddbd v1.5.2PL0 Copyright (c) Steve Scherf et al.
# Submitted via: ExactAudioCopy v0.99pb5
#
DISCID=8c12150a
DTITLE=Wingmakers - Ancient Arrow 1-9
DYEAR=2000
DGENRE=New Age
TTITLE0=Chamber 01
TTITLE1=Chamber 02
TTITLE2=Chamber 03
TTITLE3=Chamber 04
TTITLE4=Chamber 05
TTITLE5=Chamber 06
TTITLE6=Chamber 07
TTITLE7=Chamber 08
TTITLE8=Chamber 09
TTITLE9=Daten-CD
EXTD=YEAR: 2000
EXTT0=
EXTT1=
EXTT2=
EXTT3=
EXTT4=
EXTT5=
EXTT6=
EXTT7=
EXTT8=
EXTT9=
PLAYORDER=
